<svg width="664" height="662" viewBox="0 0 664 662" fill="none" xmlns="http://www.w3.org/2000/svg">
<path d="M574.045 602.637C581.849 602.637 589.333 605.737 594.851 611.255C600.369 616.773 603.469 624.257 603.469 632.061C603.469 639.864 600.369 647.348 594.851 652.866C589.333 658.384 581.849 661.484 574.045 661.484C566.241 661.484 558.757 658.384 553.239 652.866C547.721 647.348 544.621 639.864 544.621 632.061C544.621 624.257 547.721 616.773 553.239 611.255C558.757 605.737 566.241 602.637 574.045 602.637ZM458.859 601.561C466.663 601.561 474.147 604.661 479.665 610.179C485.183 615.697 488.283 623.181 488.283 630.984C488.283 638.788 485.183 646.272 479.665 651.79C474.147 657.308 466.663 660.408 458.859 660.408C451.056 660.408 443.572 657.308 438.054 651.79C432.536 646.272 429.436 638.788 429.436 630.984C429.436 623.181 432.536 615.697 438.054 610.179C443.572 604.661 451.056 601.561 458.859 601.561ZM287.291 0C294.064 0 301.69 2.5116 307.432 5.02344C318.914 10.0471 351.567 34.8071 358.744 64.9492C365.198 92.0552 363.552 93.3755 364.455 98.3164C384.198 105.516 401.268 118.581 413.373 135.76C425.478 152.938 432.04 173.408 432.178 194.422C432.178 221.743 421.324 247.945 402.005 267.265C382.686 286.584 356.483 297.437 329.162 297.438C319.877 297.404 310.639 296.115 301.699 293.605C301.751 293.672 301.893 293.799 301.941 293.863C310.061 304.774 308.537 336.998 308.537 336.998C308.537 336.998 350.912 336.998 361.822 337.506C372.733 338.013 377.975 341.539 380.09 349.432C382.203 357.319 392.001 390.993 392.016 391.043C392.016 391.043 640.929 391.805 651.332 391.805C661.735 391.805 664.721 401.703 662.75 409.059C660.779 416.414 631.817 516.517 627.152 530.512C622.487 544.506 608.959 545.061 608.959 545.061L438.047 544.863L444.326 565.318L599.443 565.359C599.443 565.359 611.623 569.038 611.623 582.105C611.623 595.164 599.078 598.506 599.062 598.51H431.947C417.235 598.51 414.795 584.855 413.646 580.568C412.497 576.28 354.209 371.76 354.209 371.76L300.418 372.521C298.39 383.421 290.538 397.357 290.521 397.387C290.447 397.334 146.316 295.835 143.086 296.91C139.856 297.987 124.426 318.08 87.1074 324.539C49.7886 330.998 10.6745 301.933 18.9277 273.227C27.1809 244.52 52.3007 241.291 52.3007 241.291C104.691 278.251 159.951 263.896 159.951 263.896C120.838 262.82 64.8592 243.443 27.1816 201.818C-10.496 160.194 -9.06144 97.0387 31.8457 74.791C44.6291 67.8386 58.1843 64.4954 72.2578 64.7617C103.219 65.3476 136.694 83.4032 169.998 118.928C218.421 170.579 207.146 241.771 207.137 241.828C208.723 241.299 228.085 238.029 236.764 239.613C229.832 225.553 226.201 210.097 226.146 194.422C226.147 167.1 237 140.898 256.319 121.579C275.638 102.26 301.841 91.4064 329.162 91.4062C330.305 91.5154 331.447 91.6437 332.586 91.791C333.388 67.4825 303.862 34.4104 282.312 31.9375C282.307 31.935 267.602 25.1171 272.266 10.0488C274.598 2.51331 280.518 0 287.291 0ZM79.6699 431.387C140.566 469.701 172.283 496.344 172.283 496.344C146.416 508.009 105.088 501.679 105.043 501.672C79.9232 523.747 70.5344 531.865 63.6836 526.283C56.8327 520.701 80.9375 478.582 80.9375 478.582C79.9225 477.059 74.3415 441.029 79.6699 431.387ZM110.557 331.109C111.49 330.971 112.449 331.424 113.66 332.434C113.71 332.466 260.782 428.961 262.219 433.984C263.654 439.008 222.746 472.38 217.723 472.738C212.699 473.097 88.5422 387.694 86.748 382.85C84.9539 378.005 101.102 342.841 105.049 336.92C107.516 333.219 109.001 331.341 110.557 331.109ZM367.248 159.188C366.197 159.211 365.146 159.358 364.105 159.639C356.383 162.617 346.193 172.671 353.91 194.4C356.055 200.44 363.58 206.791 379.256 205.297C384.082 204.837 391.001 192.877 389.225 180.951C387.615 170.144 377.409 158.96 367.248 159.188Z" fill="#FFAA00"/>
</svg>
